<svg xmlns="http://www.w3.org/2000/svg" xmlns:xlink="http://www.w3.org/1999/xlink" viewBox="0 0 512 512" id="document">
  <defs>
    <linearGradient id="a" x1="366.69" x2="249.06" y1="441.56" y2="323.93" gradientUnits="userSpaceOnUse">
      <stop offset="0" stop-color="#78a0b5"></stop>
      <stop offset=".43" stop-color="#78a0b5"></stop>
      <stop offset="1" stop-color="#a3c7d3"></stop>
    </linearGradient>
    <linearGradient xlink:href="#a" id="c" x1="140.18" x2="97.08" y1="160.99" y2="117.89"></linearGradient>
    <linearGradient id="d" x1="358.55" x2="112.45" y1="358.61" y2="112.5" gradientUnits="userSpaceOnUse">
      <stop offset="0" stop-color="#bce4ed"></stop>
      <stop offset=".49" stop-color="#fff"></stop>
      <stop offset="1" stop-color="#fff"></stop>
    </linearGradient>
    <linearGradient id="e" x1="290.07" x2="203.87" y1="248.8" y2="162.59" gradientUnits="userSpaceOnUse">
      <stop offset="0" stop-color="#34344f"></stop>
      <stop offset="1" stop-color="#666684"></stop>
    </linearGradient>
    <radialGradient id="b" cx="256" cy="-2682.85" r="200.83" gradientTransform="matrix(1 0 0 .45 0 1626.25)" gradientUnits="userSpaceOnUse">
      <stop offset="0" stop-color="#78a0b5" stop-opacity=".6"></stop>
      <stop offset="1" stop-color="#78a0b5" stop-opacity="0"></stop>
    </radialGradient>
  </defs>
  <g>
    <path fill="#e6f1f4" d="M496.52,129.86C483.09,80.38,431.63,28.92,382.15,15.49,351.82,7.92,311.17.13,256,0c-55.16.14-95.81,7.92-126.14,15.49C80.38,28.93,28.92,80.38,15.49,129.86,7.92,160.19.14,200.84,0,256c.14,55.17,7.92,95.82,15.49,126.15,13.43,49.48,64.89,100.93,114.37,114.37,30.33,7.57,71,15.35,126.14,15.49,55.17-.14,95.82-7.92,126.15-15.49,49.48-13.44,100.94-64.89,114.37-114.37,7.57-30.33,15.35-71,15.49-126.15C511.87,200.84,504.09,160.19,496.52,129.86Z"></path>
    <path fill="url(#b)" d="M444.68,366.22c-10.54-17.59-50.9-35.87-89.72-40.64a862.45,862.45,0,0,0-99-5.51,862.3,862.3,0,0,0-99,5.51c-38.82,4.77-79.18,23.05-89.72,40.64C61.38,377,55.27,391.44,55.17,411c.1,19.6,6.21,34,12.15,44.83,10.54,17.58,50.9,35.86,89.72,40.64a865.2,865.2,0,0,0,99,5.5,865.2,865.2,0,0,0,99-5.5c38.82-4.78,79.18-23.06,89.72-40.64,5.94-10.78,12.05-25.23,12.15-44.83C456.73,391.44,450.62,377,444.68,366.22Z"></path>
    <path fill="url(#a)" d="M391.27,408.25c-15.4,3.47-119.91,7.61-135.36,6.75,0,0-14.28-.05-31.24-1.4-10.16-.82-18.22-1.52-27.65-3-16.24-2.61-23.22-9.46-23.22-9.45,21.41,14.37,41.67-3.88,45-24.32.26-1.67,1.71-15.89,1.91-24.52q102.69,1,205.38-3.79c-.74,8.32-3.12,23-3.49,24.6C419.45,386.77,410.35,405.45,391.27,408.25Z"></path>
    <path fill="url(#c)" d="M147.91,133.8c.5-14.09-6.65-30.11-27.5-29.26A38,38,0,0,0,92,126.48a60,60,0,0,0-2.77,9.37,187.37,187.37,0,0,0-3.32,20.57c14.54-.68,44.65-1.27,60.59-1.77C147.16,146,147.72,138.2,147.91,133.8Z"></path>
    <path fill="url(#d)" d="M218.79,376.81c.26-1.67,1.71-15.89,1.91-24.52q72.84.7,145.68-1.5c2.27-29.77,4.09-80.3,3.77-94.79.6-21.75-4.07-97.36-7.16-109.28-4.51-19.48-22.84-39-41.85-43.88C309.55,100,277.08,97,255.8,97c-15.42-.87-126.89,4.49-135.39,7.55,20.85-.85,28,15.17,27.5,29.26-.52,12-3.76,49.42-4,58.77-1.71,24.54-2.67,51.74-2.51,63.43-.46,16.48,2.12,63.95,4.74,91.12A90.2,90.2,0,0,0,154,376.4c4.14,9,11.28,18.81,19.81,24.73C195.21,415.5,215.47,397.25,218.79,376.81Z"></path>
    <path fill="url(#e)" d="M196.12,175.57H315.89a12.63,12.63,0,1,1,0,25.25H196.12a12.63,12.63,0,1,1,0-25.25Zm-12.63,65.7a12.62,12.62,0,0,1,12.63-12.63h83.63a12.63,12.63,0,1,1,0,25.25H196.12A12.62,12.62,0,0,1,183.49,241.27Z"></path>
  </g>
</svg>
